Coordinates
nRows=15
nColumns=24

# SIMM Motion File Header:
name Coordinates
datacolumns 24
datarows 15
otherdata 1
range 0.33866999999999997000 0.35266999999999998000
endheader
time	pelvis_tx	pelvis_ty	pelvis_tz	pelvis_tilt	pelvis_list	pelvis_rotation	hip_flexion_r	hip_adduction_r	hip_rotation_r	knee_angle_r	ankle_angle_r	subtalar_angle_r	mtp_angle_r	hip_flexion_l	hip_adduction_l	hip_rotation_l	knee_angle_l	ankle_angle_l	subtalar_angle_l	mtp_angle_l	lumbar_extension	lumbar_bending	lumbar_rotation
      0.33866999999999997000	      0.90220043330004018000	      0.67127217928676797000	     -0.27122934600658599000	      2.27586742880027120000	     -0.11840633118226163000	     -4.56153969575358080000	    -21.66585242344440900000	     -0.11110861798558076000	     -2.23966994566761630000	      2.64301809069280310000	      8.04257345495236290000	      0.00000000000002809557	     -0.00000000000016042675	     25.17679463057326600000	     -4.81364844176374440000	     -9.87629938894489360000	    -11.34664049484439400000	     -0.21369018568211481000	      0.00000000000001481729	     -0.00000000000009299683	    -21.80585606671501300000	     -1.38932889550802250000	      3.42640406055545110000
      0.33966999999999997000	      0.90367654070418302000	      0.67090140039655111000	     -0.27132153397942904000	      2.29890204633031820000	     -0.11948437599187554000	     -4.61016811389775590000	    -21.81818164914919900000	     -0.14136860697601381000	     -2.24884259557844460000	      2.61982126258615540000	      8.09051522653025050000	      0.00000000000002798688	     -0.00000000000015974000	     25.20770558563753000000	     -4.83220144105631810000	     -9.84772646811421560000	    -11.06164272873207500000	     -0.20704505383381272000	      0.00000000000001487319	     -0.00000000000009362978	    -21.81994380874268900000	     -1.40337618195588650000	      3.46591102240595680000
      0.34066999999999997000	      0.90515406428863765000	      0.67053031836562471000	     -0.27141336999763876000	      2.32188639047940400000	     -0.12056566515527289000	     -4.65842857440145860000	    -21.97000555454473400000	     -0.17173318709919572000	     -2.25840076787864910000	      2.59559686858285680000	      8.13798873217957560000	      0.00000000000002791215	     -0.00000000000015915078	     25.23858881896305200000	     -4.85076967996781240000	     -9.81671508317938190000	    -10.78007234502152100000	     -0.19861244951686324000	      0.00000000000001493477	     -0.00000000000009428463	    -21.83379698325748600000	     -1.41784158831691040000	      3.50549363789283360000
      0.34166999999999997000	      0.90663583641402745000	      0.67015832691256938000	     -0.27150415015194845000	      2.34471991448560810000	     -0.12165668738002051000	     -4.70558516198374740000	    -22.12031349901252500000	     -0.20241154062062286000	     -2.26911550734697800000	      2.56828977688961760000	      8.18405744004322780000	      0.00000000000002793929	     -0.00000000000015885413	     25.26938888707233100000	     -4.86938363773606750000	     -9.77838830593211660000	    -10.50878410851622400000	     -0.18481742779399465000	      0.00000000000001501341	     -0.00000000000009500515	    -21.84694645523365300000	     -1.43356135441740910000	      3.54530321428882500000
      0.34266999999999997000	      0.90811904320272940000	      0.66978613249828989000	     -0.27159458996947489000	      2.36749130147976580000	     -0.12277723859367973000	     -4.75234936394819130000	    -22.27009388778541800000	     -0.23315427755307488000	     -2.28026902659629900000	      2.53992682908129550000	      8.23008524715232070000	      0.00000000000002796876	     -0.00000000000015854797	     25.30016042080183400000	     -4.88803123126313640000	     -9.73762980962882450000	    -10.24094409460789600000	     -0.16975299040064462000	      0.00000000000001508684	     -0.00000000000009574847	    -21.85985524941138200000	     -1.44967226779381630000	      3.58516449294416040000
      0.34366999999999998000	      0.90960655398136769000	      0.66941332920033825000	     -0.27168400877665133000	      2.39007627743778570000	     -0.12398637677407374000	     -4.79793640905909770000	    -22.41829160947362000000	     -0.26409016471860169000	     -2.29273888518859970000	      2.50839631292772490000	      8.27599035199773960000	      0.00000000000002800516	     -0.00000000000015821322	     25.33084635139199000000	     -4.90677973206664840000	     -9.68957615615744670000	     -9.98344874849047950000	     -0.15088030599584856000	      0.00000000000001514461	     -0.00000000000009656020	    -21.87204201019380200000	     -1.46695662299795070000	      3.62518087837753100000
      0.34466999999999998000	      0.91109406476000598000	      0.66904052590238650000	     -0.27177342758382778000	      2.41266125339580560000	     -0.12519551495446779000	     -4.84352345417000500000	    -22.56648933116181900000	     -0.29502605188412845000	     -2.30520874378089990000	      2.47686579677415390000	      8.32189545684315850000	      0.00000000000002804157	     -0.00000000000015787848	     25.36153228198214600000	     -4.92552823287016130000	     -9.64152250268607070000	     -9.72595340237306340000	     -0.13200762159105250000	      0.00000000000001520239	     -0.00000000000009737193	    -21.88422877097621800000	     -1.48424097820208490000	      3.66519726381090120000
      0.34566999999999998000	      0.91258635231148788000	      0.66866722859074923000	     -0.27186139100708662000	      2.43482059983189010000	     -0.12609339763120447000	     -4.88809992893201530000	    -22.71242955318277600000	     -0.32668239370753410000	     -2.31907917044041060000	      2.44137436354991260000	      8.36904275819084200000	      0.00000000000002802463	     -0.00000000000015741699	     25.39223693201647700000	     -4.94410873815192890000	     -9.58572428830260750000	     -9.48002219630027730000	     -0.11171670530868917000	      0.00000000000001525641	     -0.00000000000009829573	    -21.89534588587710200000	     -1.50340538327100210000	      3.70545243910310160000
      0.34666999999999998000	      0.91408023212058442000	      0.66829376660788342000	     -0.27194886930237300000	      2.45683806976066330000	     -0.12688752847338880000	     -4.93233954691106020000	    -22.85761727531464900000	     -0.35857888708356572000	     -2.33341645312232430000	      2.40456262463544950000	      8.41660412503928160000	      0.00000000000002798990	     -0.00000000000015691324	     25.42294782186553100000	     -4.96263324492644920000	     -9.52734455361511760000	     -9.23794570357569710000	     -0.09095304506713723600	      0.00000000000001530918	     -0.00000000000009925690	    -21.90610645215080200000	     -1.52319647162817960000	      3.74578721101491220000
      0.34766999999999998000	      0.91557571460101783000	      0.66792029871246472000	     -0.27203586836838606000	      2.47872302825437710000	     -0.12754158503495475000	     -4.97622879318053450000	    -23.00202673306991800000	     -0.39074423947227865000	     -2.34832633073943860000	      2.36638044778363050000	      8.46445653531358740000	      0.00000000000002796219	     -0.00000000000015642268	     25.45364683193380600000	     -4.98105071808883970000	     -9.46633834375961670000	     -8.99980000230630670000	     -0.07055644384709344700	      0.00000000000001537355	     -0.00000000000010023911	    -21.91652825762247000000	     -1.54366202800788920000	      3.78615147283171090000
      0.34866999999999998000	      0.91707600509546217000	      0.66754681307938746000	     -0.27212142974657938000	      2.50021045244291520000	     -0.12777541875466655000	     -5.01906692432130000000	    -23.14410139769537300000	     -0.42371616889903341000	     -2.36495399316214970000	      2.32408695711975350000	      8.51318207586548500000	      0.00000000000002795553	     -0.00000000000015597163	     25.48431020265975600000	     -4.99914709041483900000	     -9.39745270840010430000	     -8.77344667540244850000	     -0.05126101969157132600	      0.00000000000001547273	     -0.00000000000010128447	    -21.92593378068802700000	     -1.56615098845518960000	      3.82660420436347340000
      0.34966999999999998000	      0.91857629558990650000	      0.66717332744631030000	     -0.27220699112477270000	      2.52169787663145280000	     -0.12800925247437833000	     -5.06190505546206640000	    -23.28617606232082700000	     -0.45668809832578816000	     -2.38158165558486120000	      2.28179346645587700000	      8.56190761641738440000	      0.00000000000002794886	     -0.00000000000015552058	     25.51497357338570600000	     -5.01724346274083910000	     -9.32856707304059190000	     -8.54709334849859200000	     -0.03196559553604920400	      0.00000000000001557192	     -0.00000000000010232982	    -21.93533930375358700000	     -1.58863994890249010000	      3.86705693589523580000
      0.35066999999999998000	      0.92008098877836197000	      0.66680025819226274000	     -0.27229151826867692000	      2.54291941431231640000	     -0.12808585521360033000	     -5.10352539418710640000	    -23.42630002289797300000	     -0.49004816466344908000	     -2.40016179959305240000	      2.23588570190845060000	      8.61050696625453330000	      0.00000000000002796624	     -0.00000000000015504821	     25.54555801880833200000	     -5.03511722387886080000	     -9.25224975793022080000	     -8.33163695861299130000	     -0.01442783579116052900	      0.00000000000001564672	     -0.00000000000010328173	    -21.94398125747213500000	     -1.61263980919257130000	      3.90735945935587470000
      0.35166999999999998000	      0.92158714953148790000	      0.66642732773122515000	     -0.27237570066781808000	      2.56405232315728830000	     -0.12811004762599260000	     -5.14473980210690570000	    -23.56577374879235300000	     -0.52353760997141152000	     -2.41939277079640110000	      2.18877317939984640000	      8.65906425252010160000	      0.00000000000002799163	     -0.00000000000015456874	     25.57611615579651200000	     -5.05291678128755710000	     -9.17345521623623840000	     -8.11981288106679600000	      0.00252403581685267450	      0.00000000000001571341	     -0.00000000000010420249	    -21.95236868807501900000	     -1.63714330276357760000	      3.94761191345947320000
      0.35266999999999998000	      0.92309785036364445000	      0.66605516303033308000	     -0.27245898183645251000	      2.58498635862608110000	     -0.12804198281872894000	     -5.18460796869959580000	    -23.70341285384508000000	     -0.55728798244742761000	     -2.44080267506511910000	      2.13810086791800650000	      8.70738588198513770000	      0.00000000000002800154	     -0.00000000000015401777	     25.60653012526520900000	     -5.07044842531242600000	     -9.08723458317641430000	     -7.91913540584793460000	      0.01833547384609641300	      0.00000000000001579178	     -0.00000000000010512742	    -21.96008131259275600000	     -1.66306084452343760000	      3.98755349594338430000
